<?xml version="1.0" encoding="UTF-8"?>
<svg id="Camada_1" data-name="Camada 1" xmlns="http://www.w3.org/2000/svg" viewBox="0 0 1080 670.19">
  <defs>
    <style>
      .cls-1 {
        fill: #fff;
      }
    </style>
  </defs>
  <rect class="cls-1" x="-5.91" y="-4.48" width="1091.82" height="679.15"/>
  <g>
    <path d="M626.58,280.44c-11.19-8.5-26.93-12.73-47.16-12.73-18.62,0-35.57,2.9-50.8,8.69-15.26,5.81-28.67,13.63-40.29,23.48-11.59,9.86-21.31,20.9-29.13,33.2-7.82,12.27-13.71,24.98-17.59,38.06-3.94,13.09-5.89,25.68-5.89,37.82,0,18.9,4.32,34.53,12.95,46.97,8.63,12.41,20.17,21.67,34.62,27.72,14.42,6.08,30.16,9.09,47.16,9.09,19.44,0,35.35-2.55,47.76-7.68,12.43-5.13,21.66-11.46,27.72-19,6.11-7.57,9.12-14.85,9.12-21.88,0-8.09-2.01-14.28-6.08-18.62-5.65,8.36-13.6,16.13-23.86,23.29-10.26,7.17-22.13,10.72-35.62,10.72-14.85,0-25.85-3.99-32.99-11.95-7.17-7.95-10.75-19.36-10.75-34.21,0-2.14.05-4.51.22-7.09.14-2.55.33-5.19.6-7.87h15.39c23.46,0,44.33-3.86,62.52-11.54,18.22-7.68,32.61-17.81,43.11-30.38,10.53-12.54,15.77-26.12,15.77-40.67s-5.59-26.9-16.78-35.43ZM569.7,348.26c-5.95,8.09-13.9,14.36-23.89,18.81-9.96,4.45-21.18,6.68-33.58,6.68h-3.23c1.36-9.42,3.56-18.87,6.65-28.34,3.12-9.45,6.95-18,11.54-25.68,4.62-7.68,9.72-13.93,15.39-18.65,5.67-4.7,11.48-7.06,17.4-7.06s10.53,2.28,13.76,6.87c3.26,4.62,4.86,10.94,4.86,19.03,0,10.81-2.96,20.23-8.9,28.34Z"/>
    <path d="M729.63,455.53c-3.23,1.33-6.6,2.04-10.1,2.04-4.32,0-7.85-1.49-10.53-4.45-2.69-2.99-4.05-7.17-4.05-12.57,0-3.5.19-7.03.63-10.51.41-3.5.95-7.36,1.6-11.54.68-4.21,1.68-8.99,3.04-14.39l48.6-223.03h-106.07l-4.05,23.08h9.72c7.82,0,12.95,1.09,15.37,3.26,2.44,2.14,3.64,6.05,3.64,11.7,0,1.63-.35,4.21-1,7.71-.68,3.53-1.41,7.14-2.23,10.91l-34.81,164.36c-1.63,7.28-2.99,13.82-4.05,19.63-1.09,5.81-1.76,10.91-2.04,15.37-.27,4.48-.41,8.44-.41,11.95,0,13.79,4.67,24.49,13.98,32.17,9.31,7.71,22.59,11.54,39.88,11.54s30.05-3.01,40.04-9.09c9.99-6.05,18.22-12.87,24.71-20.44l-10.13-14.17c-4.59,2.99-8.5,5.13-11.76,6.49Z"/>
    <path d="M855.43,181.48c-7.44-4.05-15.85-6.08-25.3-6.08-7.55,0-14.5,1.09-20.85,3.23-6.33,2.2-11.59,5.89-15.77,11.13-4.21,5.27-6.27,12.24-6.27,20.88s3.42,15.5,10.32,19.82c6.87,4.32,15.18,6.49,24.9,6.49,7.55,0,14.63-1.36,21.26-4.05,6.6-2.69,12.08-6.62,16.37-11.76,4.32-5.13,6.49-11.32,6.49-18.6,0-9.99-3.72-17.02-11.13-21.07ZM860.07,449.04c-4.02,2.99-7.68,5.13-10.91,6.49-3.23,1.33-6.9,2.04-10.94,2.04-4.32,0-7.82-1.49-10.51-4.45-2.69-2.99-4.07-7.17-4.07-12.57,0-3.5.27-7.03.84-10.51.54-3.5,1.19-7.36,2.01-11.54.81-4.21,1.76-8.99,2.82-14.39l27.94-132.35h-104.82l-4.07,23.05h8.09c7.85,0,13.09,1.03,15.8,3.04,2.69,2.04,4.05,6.03,4.05,11.95,0,2.99-.27,6.41-.79,10.34-.57,3.88-1.36,8.04-2.44,12.33l-14.58,71.27c-1.9,7.25-3.31,13.82-4.24,19.63-.98,5.78-1.63,10.91-2.04,15.37-.41,4.45-.62,8.04-.62,10.72,0,14.04,4.72,24.79,14.2,32.17,9.42,7.44,22.8,11.13,40.04,11.13s30.11-3.01,40.1-9.09c9.99-6.05,18.22-12.87,24.68-20.44l-10.53-14.17Z"/>
    <g>
      <path d="M446.18,312.34c0,12.76-2.39,26.17-7.09,39.88-4.53,13.19-10.53,26.5-17.78,39.53-7.11,12.68-14.99,25.19-23.43,37.28-8.58,12.16-17.18,23.29-25.6,33.04-8.44,9.86-16.24,18.35-23.21,25.3l-2.39,2.42-50.66,5-19.82-126.76-5.59-35.73c3.09-.3,7.36-2.58,10.02-5.62.65-.79,1.22-1.6,1.63-2.44.81-1.68,1.44-3.34,1.82-4.94,1.36-5.4.35-10.15-2.14-13.93-.05-.11-.14-.19-.19-.3v-.03c-5.13-7.55-16.18-11.21-26.12-8.61-2.28-.81-4.83-1.55-7.6-2.25l-8.74-2.2,4.32-21.69.03-.16h77.21l18.52,119.27c1.3,8.66,2.44,17.16,3.45,25.36.84,7.19,1.66,13.79,2.42,19.79,4.05-4.56,7.98-9.31,11.84-14.23,7.93-10.07,15.01-20.52,21.04-31.11,6.03-10.67,10.86-20.85,14.36-30.22,3.37-8.9,5.05-16.62,5.05-22.97s-1.38-10.86-4.13-13.71c-2.74-2.9-6.03-4.24-10.43-4.24h-9.5v-9.5c0-12.95,3.86-23.13,11.46-30.22,7.41-6.92,15.99-10.45,25.49-10.45,10.67,0,19.74,3.91,26.25,11.27l.03.03c6.38,7.28,9.5,18.11,9.5,33.15Z"/>
      <path d="M317.2,334.82c-3.26,14.12-13.76,24.57-26.04,29.73-1.44.6-2.91,1.11-4.37,1.57-3.48,1.09-7.06,1.74-10.59,1.9-15.39.87-30.11-6.98-34.42-26.42-3.39-15.23,2.74-40.67,21.12-39.61,1.49.05,3.1.33,4.75.79,8.69,2.36,13.03,10.05,8.88,18.52-.41.81-.87,1.47-1.41,2.01-3.07,3.15-7.74,2.36-8.25,5.21-.52,2.96,1.25,4.02,3.75,3.77,3.09-.3,7.36-2.58,10.02-5.62.65-.79,1.22-1.6,1.63-2.44.81-1.68,1.44-3.34,1.82-4.94,1.36-5.4.35-10.15-2.14-13.93-.05-.11-.14-.19-.19-.3v-.03c-5.13-7.55-16.18-11.21-26.12-8.61-5.19,1.38-10.07,4.48-13.66,9.61-9.53,13.66-9.99,35.08-1.79,49.44-.16.84-5.13,1.3-6.35,1.36-11.54.62-22.1-2.99-28.94-12.43.57-.9,1.17-.73,2.12-.87,3.04-.33,14.42-1.09,14.88-4.78-.73-6.08-5.1-3.1-8.88-2.5-15.39,2.5-32.01,1.74-35.95-16.34l16.02,1c4.24-.76,27.94-.81,29.97-3.18,1.74-2.04.22-5.62-2.52-5.65-17.27,2.2-37.17,4.21-53.95-1.33-10.75-3.53-17.65-12.05-20.14-22.94,12.35,3.15,24.84,6.49,37.52,8.12,7.44.95,17.95,2.09,25.33,1.82,1.52-.05,6.05-.3,7.11-.57,2.36-.6,2.88-5.4-.9-5.97-5.35-.81-12.54.03-18.16-.38-17.97-1.25-56.71-7.93-70.37-19.55-15.2-12.9-11.02-31.47-2.61-47l1.22-.35c.76,1.82,2.53,4.07,3.83,5.54,23.27,26.47,69.37,38.12,103.46,40.48,3.56.24,7.14.33,10.72.33,11.05.08,22.21-.49,32.88,1.19,8.25,1.3,16.21,3.91,23.59,9.2,16.94,12.11,21.56,34.56,17.13,54.14Z"/>
    </g>
  </g>
</svg>